{
  "asset": {
    "version": "2.0",
    "generator": "THREE.GLTFExporter r180"
  },
  "scenes": [
    {
      "name": "AuxScene",
      "nodes": [
        0
      ]
    }
  ],
  "scene": 0,
  "nodes": [
    {
      "name": "IfcBuildingElementProxy_-_8mm钢板-006<2Q_NGBswqpI9xb7oSV4NH8>_2",
      "extras": {
        "name": "IfcBuildingElementProxy - 8mm钢板-006<2Q_NGBswqpI9xb7oSV4NH8>",
        "gltfExtensions": {
          "always_face_camera": {
            "Value": false
          }
        }
      },
      "children": [
        1,
        2
      ]
    },
    {
      "name": "mesh_112",
      "extras": {
        "gltfExtensions": {
          "uuid": {
            "Value": "wismacewzrildpfsbmpm_LINE"
          }
        }
      },
      "mesh": 0
    },
    {
      "name": "mesh_112_1",
      "extras": {
        "gltfExtensions": {
          "uuid": {
            "Value": "wismacewzrildpfsbmpm"
          }
        }
      },
      "mesh": 1
    }
  ],
  "bufferViews": [
    {
      "buffer": 0,
      "byteOffset": 0,
      "byteLength": 3648,
      "target": 34962,
      "byteStride": 12
    },
    {
      "buffer": 0,
      "byteOffset": 3648,
      "byteLength": 1216,
      "target": 34963
    },
    {
      "buffer": 0,
      "byteOffset": 4864,
      "byteLength": 4248,
      "target": 34962,
      "byteStride": 12
    },
    {
      "buffer": 0,
      "byteOffset": 9112,
      "byteLength": 4248,
      "target": 34962,
      "byteStride": 12
    },
    {
      "buffer": 0,
      "byteOffset": 13360,
      "byteLength": 2832,
      "target": 34962,
      "byteStride": 8
    },
    {
      "buffer": 0,
      "byteOffset": 16192,
      "byteLength": 1416,
      "target": 34963
    }
  ],
  "buffers": [
    {
      "byteLength": 17608,
      "uri": "data:application/octet-stream;base64,"
    }
  ],
  "accessors": [
    {
      "bufferView": 0,
      "componentType": 5126,
      "count": 304,
      "max": [
        120.3936996459961,
        3355.3974609375,
        -27.264131546020508
      ],
      "min": [
        120.07874298095703,
        3351.46044921875,
        -33.14960479736328
      ],
      "type": "VEC3"
    },
    {
      "bufferView": 1,
      "componentType": 5125,
      "count": 304,
      "max": [
        303
      ],
      "min": [
        0
      ],
      "type": "SCALAR"
    },
    {
      "bufferView": 2,
      "componentType": 5126,
      "count": 354,
      "max": [
        1,
        1,
        1
      ],
      "min": [
        -1,
        -1,
        -1
      ],
      "type": "VEC3"
    },
    {
      "bufferView": 3,
      "componentType": 5126,
      "count": 354,
      "max": [
        120.3936996459961,
        3355.3974609375,
        -27.264131546020508
      ],
      "min": [
        120.07874298095703,
        3351.46044921875,
        -33.14960479736328
      ],
      "type": "VEC3"
    },
    {
      "bufferView": 4,
      "componentType": 5126,
      "count": 354,
      "max": [
        85.22708892822266,
        84.78889465332031
      ],
      "min": [
        -85.22708892822266,
        -85.22708892822266
      ],
      "type": "VEC2"
    },
    {
      "bufferView": 5,
      "componentType": 5125,
      "count": 354,
      "max": [
        353
      ],
      "min": [
        0
      ],
      "type": "SCALAR"
    }
  ],
  "materials": [
    {
      "pbrMetallicRoughness": {
        "baseColorFactor": [
          0,
          0,
          0,
          1
        ],
        "metallicFactor": 0,
        "roughnessFactor": 1
      },
      "name": "DefaultMaterialEdge"
    },
    {
      "pbrMetallicRoughness": {
        "baseColorFactor": [
          0.6941176652908325,
          0.6941176652908325,
          0.6941176652908325,
          1
        ],
        "metallicFactor": 0,
        "roughnessFactor": 1
      },
      "doubleSided": true,
      "name": "<auto>11"
    }
  ],
  "meshes": [
    {
      "primitives": [
        {
          "mode": 1,
          "attributes": {
            "POSITION": 0
          },
          "indices": 1,
          "material": 0
        }
      ]
    },
    {
      "primitives": [
        {
          "mode": 4,
          "attributes": {
            "NORMAL": 2,
            "POSITION": 3,
            "TEXCOORD_0": 4
          },
          "indices": 5,
          "material": 1
        }
      ]
    }
  ]
}