
<svg width="26" height="26" viewBox="0 0 26 26" fill="none" xmlns="http://www.w3.org/2000/svg">
<g id="pdf" clip-path="url(#clip0_2209_5370)">
<path id="Vector" d="M14.25 9.4H21.125L14.25 2.8V9.4ZM5.5 1H15.5L23 8.2V22.6C23 23.2365 22.7366 23.847 22.2678 24.2971C21.7989 24.7471 21.163 25 20.5 25H5.5C4.83696 25 4.20107 24.7471 3.73223 24.2971C3.26339 23.847 3 23.2365 3 22.6V3.4C3 2.76348 3.26339 2.15303 3.73223 1.70294C4.20107 1.25286 4.83696 1 5.5 1ZM11.6625 13.528C12.175 14.608 12.825 15.496 13.575 16.108L14.0875 16.492C13 16.684 11.5 17.02 9.9125 17.608L9.775 17.656L10.4 16.408C10.9625 15.364 11.375 14.416 11.6625 13.528ZM19.7625 18.1C19.9875 17.884 20.1 17.608 20.1125 17.308C20.15 17.068 20.0875 16.84 19.9625 16.648C19.6 16.084 18.6625 15.82 17.1125 15.82L15.5 15.904L14.4125 15.208C13.625 14.584 12.9125 13.492 12.4125 12.136L12.4625 11.968C12.875 10.372 13.2625 8.44 12.4375 7.648C12.3366 7.55393 12.2172 7.48004 12.0863 7.4306C11.9554 7.38116 11.8156 7.35716 11.675 7.36H11.375C10.9125 7.36 10.5 7.828 10.3875 8.284C9.925 9.88 10.2 10.756 10.6625 12.208V12.22C10.35 13.276 9.95 14.5 9.3125 15.736L8.1125 17.896L7 18.484C5.5 19.384 4.7875 20.392 4.65 21.028C4.6 21.256 4.625 21.46 4.7125 21.676L4.75 21.736L5.35 22.108L5.9 22.24C6.9125 22.24 8.0625 21.1 9.6125 18.556L9.8375 18.472C11.125 18.076 12.725 17.8 14.875 17.572C16.1625 18.184 17.675 18.46 18.625 18.46C19.175 18.46 19.55 18.328 19.7625 18.1ZM19.25 17.248L19.3625 17.38C19.35 17.5 19.3125 17.512 19.25 17.536H19.2L18.9625 17.56C18.3875 17.56 17.5 17.332 16.5875 16.948C16.7 16.828 16.75 16.828 16.875 16.828C18.625 16.828 19.125 17.128 19.25 17.248ZM7.7875 19C6.975 20.428 6.2375 21.22 5.675 21.4C5.7375 20.944 6.3 20.152 7.1875 19.372L7.7875 19ZM11.5625 10.708C11.275 9.628 11.2625 8.752 11.475 8.248L11.5625 8.104L11.75 8.164C11.9625 8.452 11.9875 8.836 11.8625 9.484L11.825 9.676L11.625 10.66L11.5625 10.708Z" fill="#EF5350"/>
</g>
<defs>
<clipPath id="clip0_2209_5370">
<rect width="26" height="26" fill="white"/>
</clipPath>
</defs>
</svg>
