<?xml version="1.0" encoding="UTF-8"?>
<svg width="30px" height="30px" viewBox="0 0 30 30" version="1.1" xmlns="http://www.w3.org/2000/svg" xmlns:xlink="http://www.w3.org/1999/xlink">
    <title>编组 3</title>
    <g id="页面-1" stroke="none" stroke-width="1" fill="none" fill-rule="evenodd">
        <g id="切图" transform="translate(-1074, -785)">
            <g id="编组-3" transform="translate(1074, 785)">
                <rect id="矩形" x="0" y="0" width="30" height="30"></rect>
                <g id="移动到" transform="translate(1.75, 2)" fill="#FFFFFF" fill-rule="nonzero">
                    <path d="M13,0 L13.0224557,0 C13.0739315,0 13.1253058,0.00460246809 13.176092,0.0130044186 L13.2375465,0.0236407795 C13.2635465,0.0283680602 13.2895465,0.0354589675 13.3143646,0.0413680477 C13.3326936,0.0461758825 13.3508286,0.0516952059 13.3687283,0.0579134888 C13.3923646,0.0650043961 13.4148192,0.0744589299 13.4384555,0.0827316643 C13.484538,0.100556112 13.5291843,0.121891503 13.572001,0.14654983 L13.6145464,0.171368005 C13.6947295,0.21995236 13.7685675,0.278308165 13.8343645,0.345095234 L13.7280009,0.250549812 L13.7386373,0.258822547 L13.8355463,0.345095234 L17.381,3.89054887 C17.8424589,4.35200776 17.8424589,5.10018045 17.381,5.56163935 C16.9195411,6.02309825 16.1713684,6.02309825 15.7099095,5.56163937 L14.181819,4.03473067 L14.181819,11.8181832 L21.9640897,11.8181832 L20.437181,10.2900927 C20.016176,9.86904817 19.9741422,9.20055738 20.3390901,8.73009309 L20.437181,8.61900223 C20.6586507,8.39715568 20.9592543,8.27249185 21.2727263,8.27249185 C21.5861983,8.27249185 21.8868019,8.39715568 22.1082715,8.61900223 L25.6537251,12.1644559 C25.6868161,12.1975468 25.7187251,12.2341831 25.7482706,12.2708195 L25.7671797,12.2956377 C25.7886312,12.323975 25.8083636,12.3535736 25.8262705,12.384274 C25.8345433,12.3984558 25.8439978,12.4126376 25.8510887,12.4280012 C25.8743469,12.4713611 25.8952559,12.5159406 25.9137251,12.5615467 L25.9397251,12.6324558 L25.9562705,12.6868194 L25.9751796,12.7636375 L25.985816,12.825092 C25.9953744,12.8829023 26,12.9414061 26,13 L25.9952705,12.8983648 C25.9976287,12.9195558 25.9988123,12.9408611 25.998816,12.9621829 L26,13 L25.998816,13.0401829 L25.9952705,13.1016374 C25.9931612,13.1269162 25.9904027,13.1521367 25.9869978,13.1772738 L25.9763614,13.2387283 C25.9716341,13.2647283 25.9645432,13.2907283 25.9586342,13.3155465 C25.9538263,13.3338755 25.948307,13.3520104 25.9420887,13.3699101 C25.9349978,13.3935465 25.9255433,13.416001 25.9172705,13.4396374 C25.8994461,13.4857198 25.8781107,13.5303661 25.8534524,13.5731828 L25.8286342,13.6157282 C25.7800498,13.6959113 25.721694,13.7697493 25.654907,13.8355463 L25.7494524,13.7291827 L25.7411797,13.7398191 L25.654907,13.8367282 L22.1094533,17.3821818 C21.8109418,17.6806934 21.3758517,17.7972754 20.9680773,17.6880126 C20.5603029,17.5787498 20.2417949,17.2602417 20.1325321,16.8524673 C20.0232692,16.444693 20.1398513,16.0096029 20.4383628,15.7110913 L21.9640897,14.181819 L14.181819,14.181819 L14.181819,21.9640897 L15.7099095,20.437181 C16.130954,20.016176 16.7994448,19.9741422 17.2699091,20.3390901 L17.381,20.437181 C17.6028465,20.6586507 17.7275104,20.9592543 17.7275104,21.2727263 C17.7275104,21.5861983 17.6028465,21.8868019 17.381,22.1082715 L13.8355463,25.6537251 C13.8017792,25.6870889 13.7662753,25.7186479 13.7291827,25.7482706 L13.7043645,25.7671797 C13.6760272,25.7886312 13.6464286,25.8083636 13.6157282,25.8262705 C13.6015464,25.8345433 13.5873646,25.8439978 13.572001,25.8510887 C13.5286411,25.8743469 13.4840616,25.8952559 13.4384555,25.9137251 L13.3675465,25.9397251 L13.3131828,25.9562705 C13.287717,25.9631301 13.2621049,25.9694346 13.2363647,25.9751796 L13.1749102,25.985816 C13.1170999,25.9953744 13.0585961,26 13,26 L13.1004556,25.9952705 L13.0390011,25.998816 L13,26 L12.9610011,25.998816 L12.8983648,25.9952705 C12.8734788,25.993162 12.8486521,25.9904035 12.8239102,25.9869978 L12.7624557,25.9763614 C12.7364557,25.9716341 12.7104557,25.9645432 12.6856376,25.9586342 C12.6673086,25.9538263 12.6491736,25.948307 12.6312739,25.9420887 C12.6076376,25.9349978 12.585183,25.9255433 12.5615467,25.9172705 C12.5154642,25.8994461 12.4708179,25.8781107 12.4280012,25.8534524 L12.3854558,25.8286342 C12.3052727,25.7800498 12.2314347,25.721694 12.1656377,25.654907 L12.2720013,25.7494524 C12.2346555,25.7201314 12.1991349,25.6885575 12.1656377,25.654907 L8.62018403,22.1094533 C8.15872513,21.6479944 8.15872513,20.8998217 8.62018403,20.4383628 C9.08164293,19.9769039 9.82981562,19.9769039 10.2912745,20.4383628 L11.8181832,21.9640897 L11.8181832,14.181819 L4.03473067,14.181819 L5.56282119,15.7099095 C5.98382617,16.130954 6.02586005,16.7994448 5.66091207,17.2699091 L5.56282119,17.381 C5.34135155,17.6028465 5.04074795,17.7275104 4.72727595,17.7275104 C4.41380395,17.7275104 4.11320034,17.6028465 3.8917307,17.381 L0.346277061,13.8355463 L0.260004346,13.7386373 L0.25173164,13.7280009 L0.232822544,13.7031827 C0.211370971,13.6748454 0.19163857,13.6452468 0.173731659,13.6145464 C0.165458925,13.6003646 0.156004391,13.5861828 0.148913484,13.5708191 C0.125655295,13.5274593 0.104746301,13.4828797 0.0862771179,13.4372737 L0.060277143,13.3663647 L0.0437316742,13.312001 C0.0368720903,13.2865352 0.0305675749,13.2609231 0.0248226066,13.2351829 L0.0141862457,13.1737283 C0.00457815771,13.1163216 0,13.0582061 0,13 L0.00473168418,13.1051829 C0.0025335657,13.0776462 0.000957413102,13.0500635 0,13.0224557 L0,13 L0,12.9775466 C0,12.9503648 0.00236805765,12.9231829 0.00473168418,12.8948193 L0.0130044186,12.8239102 L0.0236407795,12.7624557 C0.0283680602,12.7364557 0.0354589675,12.7104557 0.0413680477,12.6856376 C0.0461758825,12.6673086 0.0516952059,12.6491736 0.0579134888,12.6312739 C0.0650043961,12.6076376 0.0744589299,12.585183 0.0827316643,12.5615467 C0.100556112,12.5154642 0.121891503,12.4708179 0.14654983,12.4280012 L0.171368005,12.3854558 C0.21995236,12.3052727 0.278308165,12.2314347 0.345095234,12.1656377 L0.250549812,12.2720013 C0.279870803,12.2346555 0.311444689,12.1991349 0.345095234,12.1656377 L3.89054887,8.62018403 C4.18906044,8.32167246 4.62415052,8.20509043 5.03192491,8.31435324 C5.43969929,8.42361606 5.75820733,8.74212411 5.86747015,9.14989849 C5.97673297,9.55767287 5.86015093,9.99276296 5.56163937,10.2912745 L4.03473067,11.8181832 L11.8181832,11.8181832 L11.8181832,4.03473067 L10.2900927,5.56282119 C9.86904817,5.98382617 9.20055738,6.02586005 8.73009309,5.66091207 L8.61900223,5.56282119 C8.39715568,5.34135155 8.27249185,5.04074795 8.27249185,4.72727595 C8.27249185,4.41380395 8.39715568,4.11320034 8.61900223,3.8917307 L12.1644559,0.346277061 L12.2613649,0.260004346 L12.2720013,0.25173164 L12.2968195,0.232822544 C12.3251568,0.211370971 12.3547554,0.19163857 12.3854558,0.173731659 C12.3996376,0.165458925 12.4138194,0.156004391 12.4291831,0.148913484 C12.4725429,0.125655295 12.5171225,0.104746301 12.5627285,0.0862771179 L12.6336375,0.060277143 L12.6880012,0.0437316742 L12.7648193,0.0248226066 L12.8262739,0.0141862457 C12.8836806,0.00457815771 12.9417961,0 13,0 L12.8948193,0.00473168418 L12.9787284,0 L13,0 Z" id="路径"></path>
                </g>
            </g>
        </g>
    </g>
</svg>