<?xml version="1.0" encoding="UTF-8"?>
<svg width="30px" height="30px" viewBox="0 0 30 30" version="1.1" xmlns="http://www.w3.org/2000/svg" xmlns:xlink="http://www.w3.org/1999/xlink">
    <title>编组 2</title>
    <g id="页面-1" stroke="none" stroke-width="1" fill="none" fill-rule="evenodd">
        <g id="切图" transform="translate(-972, -786)">
            <g id="编组-2" transform="translate(972, 786)">
                <rect id="矩形" x="0" y="0" width="30" height="30"></rect>
                <g id="复位" transform="translate(2, 2)" fill="#FFFFFF" fill-rule="nonzero">
                    <path d="M12.9931664,16 C13.5216439,16.0012903 14.0408052,15.8609179 14.4965832,15.5934926 C15.4254967,15.0576932 15.9984266,14.0676376 16,12.9955023 C15.999605,12.1993496 15.6823516,11.4360725 15.118244,10.8740933 C14.5541364,10.3121141 13.7895394,9.99762258 12.9931664,10 C12.4680209,10 11.9488769,10.136513 11.4912501,10.3975121 C10.0658224,11.2322562 9.57802548,13.0584722 10.3974469,14.4924967 C10.9292059,15.4244495 11.9199507,15.9998362 12.9931664,16 L12.9931664,16 Z" id="路径"></path>
                    <path d="M13.0326307,0.00543706442 C9.78902953,0.0441843398 6.6604469,1.21346505 4.18567376,3.31191073 L4.04112582,1.17498936 C4.0393858,0.835794102 3.89897819,0.512091737 3.65255601,0.279162061 C3.25847094,-0.0344087024 2.71758321,-0.0885314592 2.26924757,0.140744304 C2.12353715,0.217672158 1.995025,0.323509934 1.89155773,0.451795457 C1.67415217,0.70796281 1.57432476,1.0437517 1.61645033,1.37717262 L2.00502011,6.90766198 C2.03281121,7.23892254 2.18232758,7.54811717 2.42467549,7.77549468 C2.65668419,7.96574894 2.94851109,8.06767706 3.24844343,8.06321701 L8.78944861,7.68840038 C9.11365715,7.66642933 9.41547965,7.5151431 9.62720507,7.26848134 C9.86438553,7.02200642 9.98487426,6.68578449 9.95826655,6.34465943 C9.90461969,5.673908 9.33246632,5.16447439 8.66044343,5.18910441 L5.77259279,5.18910441 C7.72931312,3.35142866 10.3071518,2.320534 12.9906652,2.30254976 C18.8005979,2.29537574 23.5229511,6.98972956 23.5539809,12.8032342 C23.5850107,18.6167389 18.913038,23.3612984 13.1033602,23.4162224 C7.29368238,23.4711465 2.53295521,18.8157628 2.45420679,13.0027092 C2.42668445,12.5254335 2.12498792,12.1074674 1.68084041,11.9312983 C1.2366929,11.7551292 0.7307486,11.8527483 0.383906963,12.1815342 C0.156003433,12.3962821 0.0186768203,12.690023 0,13.0027092 C0.0474628165,20.16114 5.835175,25.9524887 12.9891109,26 C20.1627986,26.0120064 25.9879637,20.2026779 26,13.0244828 C26.011999,5.84628771 20.2063184,0.0174624327 13.0326307,0.00543706442 Z" id="路径"></path>
                </g>
            </g>
        </g>
    </g>
</svg>