<?xml version="1.0" encoding="UTF-8"?>
<svg width="30px" height="30px" viewBox="0 0 30 30" version="1.1" xmlns="http://www.w3.org/2000/svg" xmlns:xlink="http://www.w3.org/1999/xlink">
    <title>编组 5</title>
    <g id="页面-1" stroke="none" stroke-width="1" fill="none" fill-rule="evenodd">
        <g id="切图" transform="translate(-1176, -785)">
            <g id="编组-5" transform="translate(1176, 785)">
                <g id="旋转" transform="translate(2, 4)" fill="#FFFFFF" fill-rule="nonzero">
                    <path d="M21.1927302,6.05277828 C23.2921676,6.05277828 25,7.7957942 25,9.93848257 L25,19.1142957 C25,21.2569841 23.2921676,23 21.1927302,23 L8.24801291,23 C6.14857555,23 4.44074311,21.2569841 4.44074311,19.1142957 L4.44074311,9.93848257 C4.44074311,7.7957942 6.14857555,6.05277828 8.24801291,6.05277828 L21.1927302,6.05277828 Z M21.1927302,8.27318075 L8.24801291,8.27318075 C7.34840945,8.27318075 6.61632585,9.01979109 6.61632585,9.93848257 L6.61632585,19.1142957 C6.61632585,20.031877 7.34840943,20.7795976 8.24801291,20.7795976 L21.1927302,20.7795976 C22.0923337,20.7795976 22.8244173,20.031877 22.8244173,19.1142957 L22.8244173,9.93848257 C22.8244173,9.01979106 22.0923337,8.27318075 21.1927302,8.27318075 Z M0.0221345506,8.91376685 C1.19205418,3.11962666 6.06971068,-0.206536225 13.0555069,0.0099530112 C13.3039131,0.0213086845 13.5414809,0.117043063 13.7304814,0.281952309 L13.784871,0.319699173 C13.8142413,0.347454191 13.8321899,0.377429626 13.8446995,0.399633656 C13.8746138,0.425168284 13.9268277,0.499551778 13.9752345,0.589478055 C14.0165705,0.664971732 14.0486604,0.749347021 14.0747674,0.850375351 C14.1470684,1.13729416 14.1019093,1.44188572 13.9496714,1.69412829 C13.9325548,1.7253848 13.9136678,1.75559649 13.8931062,1.78460967 C13.8758334,1.82255277 13.8526944,1.85741406 13.8245754,1.88785839 L11.3117773,4.58897797 C10.8902581,5.04249516 10.1026972,5.02417685 9.69967047,4.55012095 C9.52671163,4.34695413 9.51311426,3.98003262 9.50495583,3.39884226 C9.50169246,3.13405926 9.49516569,2.66055843 9.43098602,2.49846908 C5.47414491,3.27227933 2.89064039,5.70695062 2.15366175,9.36173305 C2.03049512,9.96105461 1.45647714,10.3465758 0.868436236,10.2249145 C0.280704868,10.100277 -0.0976553963,9.51409576 0.0221345506,8.91376685 L0.0221345506,8.91376685 Z" id="形状"></path>
                </g>
                <rect id="矩形" x="0" y="0" width="30" height="30"></rect>
            </g>
        </g>
    </g>
</svg>